<?xml version="1.0" encoding="utf-8"?>
<!-- Generator: Adobe Illustrator 18.0.0, SVG Export Plug-In . SVG Version: 6.00 Build 0)  -->
<!DOCTYPE svg PUBLIC "-//W3C//DTD SVG 1.1//EN" "http://www.w3.org/Graphics/SVG/1.1/DTD/svg11.dtd">
<svg version="1.1" id="Layer_1" xmlns="http://www.w3.org/2000/svg" xmlns:xlink="http://www.w3.org/1999/xlink" x="0px" y="0px"
	 viewBox="0 0 200 200" enable-background="new 0 0 200 200" xml:space="preserve">
<g>
	<g>
		<path fill="#FFE473" d="M108.3,98.1c0.4,0,0.9-0.3,0.9-0.7c0-0.3-0.1-0.5-0.3-0.7c0-0.1-0.1-0.2-0.3-0.2c0,0,0,0,0,0c0,0,0,0,0,0
			c-0.2,0-0.3,0.1-0.3,0.2c-0.2,0.2-0.3,0.4-0.4,0.6C107.8,97.7,107.9,98.1,108.3,98.1z M108.3,97.4c0.1-0.1,0.1-0.2,0.3-0.3
			c0.1,0.1,0.2,0.2,0.2,0.3c0,0.2-0.3,0.3-0.4,0.3C108.2,97.7,108.3,97.4,108.3,97.4z"/>
		<polygon fill="#03244D" points="97.2,122 99,122 102.1,120.2 103.2,121.1 99.5,124.3 99.3,126.1 97.2,126.6 		"/>
		<polygon fill="#03244D" points="103.2,121.1 105,118.7 105,120.5 102,124.1 101,124.1 100,125.9 97.9,127.3 98.1,129.2 
			103.9,130.5 97.2,129.9 97.2,126.6 99.5,126.1 99.5,124.3 		"/>
		<polygon fill="#03244D" points="97.2,69.1 101.3,66.9 105.1,69.1 		"/>
		<polygon fill="#03244D" points="99.6,79.7 104.2,82.8 110.6,81 		"/>
		<polygon fill="#03244D" points="97.2,71.1 109.7,72.7 101.6,70 		"/>
		<polygon fill="#03244D" points="99.6,79.7 97.2,76 97.2,81 		"/>
		<polygon fill="#03244D" points="110.6,81 113.9,89.7 117.8,87.8 		"/>
		<polygon fill="#03244D" points="117.9,80.2 121.9,78 122.3,82.3 		"/>
		<polygon fill="#03244D" points="121.9,78 121.9,71.5 127.2,69.3 		"/>
		<polygon fill="#03244D" points="113.9,89.7 113.9,95.2 117.4,95.2 		"/>
		<polygon fill="#03244D" points="113.7,99 117.4,101.4 117.4,98.1 		"/>
		<polygon fill="#03244D" points="119.4,95.2 120.6,90.7 122.8,98.2 		"/>
		<polygon fill="#03244D" points="124.7,91.8 124.7,97.1 127.9,97.8 		"/>
		<polygon fill="#03244D" points="112.3,104.5 115.4,103.2 114.5,106.9 		"/>
		<polygon fill="#03244D" points="122.3,105 122.1,112.3 117,114.6 		"/>
		<polygon fill="#03244D" points="126.5,110.3 121.8,115.6 124.7,124.2 		"/>
		<polygon fill="#03244D" points="103.9,130.5 109.9,130 107.6,133.2 		"/>
		<polygon fill="#03244D" points="97.2,69.1 98.9,68.1 97.2,66 		"/>
		<polygon fill="#03244D" points="97.2,71.1 97.2,76 99.9,71.5 		"/>
		<polygon fill="#03244D" points="110.6,81 109.7,76.8 115.6,81.3 		"/>
		<polygon fill="#03244D" points="121.9,78 122.3,82.3 124.3,79.3 		"/>
		<polygon fill="#03244D" points="124.7,91.8 122.9,91.3 124.7,97.1 		"/>
		<polygon fill="#03244D" points="122.8,98.2 120.8,101.4 119.4,95.2 		"/>
		<polygon fill="#03244D" points="113.7,99 115.4,103.2 117.4,101.4 		"/>
		<polygon fill="#03244D" points="124.7,97.1 126.3,102 127.9,97.8 		"/>
		<polygon fill="#03244D" points="120.8,101.4 122.3,105 119,111 		"/>
		<polygon fill="#03244D" points="114.6,119.2 116.2,121.9 112.9,127.1 		"/>
		<polygon fill="#03244D" points="99.9,74.1 103.5,73.6 110.6,81 		"/>
		<polygon fill="#DD550C" points="124.7,91.8 120.6,86 120.6,90.7 		"/>
		<polygon fill="#DD550C" points="126.3,102 126.5,110.3 128.6,109.1 		"/>
		<polygon fill="#DD550C" points="119,111 111.9,111.2 119.5,108.1 		"/>
		<polygon fill="#DD550C" points="121.8,115.6 120.4,119.9 124.7,124.2 		"/>
		<polygon fill="#DD550C" points="114.6,119.2 120.4,119.9 116.2,121.9 		"/>
		<polygon fill="#DD550C" points="113.9,89.7 108.5,93.7 110.5,90 		"/>
		<polygon fill="#DD550C" points="127.2,69.3 124.3,79.3 121.9,78 		"/>
		<polygon fill="#03244D" points="124.3,79.3 126,82.4 127.1,78.4 		"/>
		<polygon fill="#03244D" points="127.9,97.8 126.3,102 128.6,109.1 		"/>
		<polygon fill="#03244D" points="122.8,98.2 122.3,105 120.8,101.4 		"/>
		<polygon fill="#03244D" points="120.4,119.9 117,114.6 114.6,119.2 		"/>
		<polygon fill="#03244D" points="117,114.6 107.6,108.4 112.7,115.6 		"/>
		<polygon fill="#DD550C" points="126.5,110.3 128.6,117.5 124.7,124.2 		"/>
		<polygon fill="#03244D" points="115.6,81.3 117.8,87.8 120.6,86 		"/>
		<polygon fill="#DD550C" points="110.6,81 117.8,87.8 115.6,81.3 		"/>
		<polygon fill="#03244D" points="97.2,76 99.9,71.5 99.6,79.7 		"/>
		<polygon fill="#03244D" points="111.2,120.5 106.9,120.7 106.3,124 		"/>
		<polygon fill="#03244D" points="103.8,101 104.3,107.3 107.4,103.8 		"/>
		<polygon fill="#03244D" points="100.7,103 104,95.9 99.6,95.2 		"/>
		<polygon fill="#03244D" points="100.7,103 100.7,114.2 103,111 		"/>
		<polygon fill="#03244D" points="103,111 105.7,114.5 100.7,114.2 		"/>
		<polygon fill="#03244D" points="105.7,114.5 105,118.7 100.7,114.2 		"/>
		<polygon fill="#DD550C" points="107.4,103.8 107.6,108.4 104.3,107.3 		"/>
		<polygon fill="#E09003" points="97.2,90.7 99.6,95.2 97.2,100.5 		"/>
		<polygon fill="#FFB68D" points="107.6,108.4 105.7,114.5 112.7,115.6 		"/>
		<polygon fill="#E09003" points="104.3,107.3 103,111 107.6,108.4 		"/>
		<polygon fill="#DD550C" points="103.8,101 100.7,103 104.3,107.3 		"/>
		<polygon fill="#FF8D43" points="100.7,103 104,95.9 103.8,101 		"/>
		<polygon fill="#FF8D43" points="107.6,108.4 103,111 105.7,114.5 		"/>
		<polygon fill="#FF8D43" points="112.3,104.5 109.6,101.6 107.4,103.8 		"/>
		<polygon fill="#FF8D43" points="105.7,114.5 106.9,120.7 105,118.7 		"/>
		<polygon fill="#DD550C" points="109.6,101.6 113.7,99 112.3,104.5 		"/>
		<polygon fill="#FFAE1F" points="105.7,114.5 111.2,120.5 112.7,115.6 		"/>
		<polygon fill="#DD550C" points="99.6,95.2 101.8,88.3 104,95.9 		"/>
		<polygon fill="#FFAE1F" points="99.6,95.2 99.3,89.6 97.2,90.7 		"/>
		<polygon fill="#DD550C" points="107.4,103.8 107.6,108.4 112.3,104.5 		"/>
		<polygon fill="#F9B26B" points="105.7,114.5 106.9,120.7 111.2,120.5 		"/>
		<polygon fill="#F9B26B" points="107.6,108.4 112.3,104.5 111.9,111.2 		"/>
		<polygon fill="#F9B26B" points="113.7,99 113.9,95.2 117.4,95.2 		"/>
		<polygon fill="#03244D" points="101.8,88.3 97.2,90.7 97.2,81 		"/>
		<polygon fill="#EFC075" points="97.2,81 99.6,79.7 101.8,88.3 		"/>
		<polygon fill="#EFC075" points="100.7,114.2 102.1,120.2 103.2,121.1 105,118.7 		"/>
		<polygon fill="#EFC075" points="113.7,99 112.3,104.5 115.4,103.2 		"/>
		<polygon fill="#EFC075" points="103.5,73.6 109.7,76.8 110.6,81 		"/>
		<polygon fill="#EFC075" points="117.8,87.8 120.6,90.7 120.6,86 		"/>
		<polygon fill="#FF8D43" points="99.6,79.7 101.8,88.3 104.2,82.8 		"/>
		<polygon fill="#FF8D43" points="117.8,87.8 113.9,89.7 120.6,90.7 		"/>
		<polygon fill="#FF8D43" points="117.4,95.2 117.4,101.4 119.4,95.2 		"/>
		<polygon fill="#FF8D43" points="120.6,90.7 124.8,97.3 122.9,91.3 		"/>
		<polygon fill="#FF8D43" points="110.6,81 99.9,74.1 99.6,79.7 		"/>
		<path fill="#FF8D43" d="M111.2,120.5"/>
		<polygon fill="#FF8D43" points="112.9,127.1 106.3,124 111.2,120.5 		"/>
		<polygon fill="#FF8D43" points="120.6,86 126.2,87.5 124.7,91.8 		"/>
		<polygon fill="#FF8D43" points="117.9,80.2 115.6,81.3 122.3,82.3 		"/>
		<polygon fill="#FF8D43" points="117.4,95.2 120.6,90.7 119.4,95.2 		"/>
		<polygon fill="#FF8D43" points="104.3,86.8 104,95.9 107,96.7 		"/>
		<polygon fill="#FF8D43" points="117.4,101.4 120.8,101.4 119.4,95.2 		"/>
		<polygon fill="#FF8D43" points="112.3,104.5 111.9,111.2 114.5,106.9 		"/>
		<polygon fill="#FF8D43" points="133.4,125.4 124.7,124.2 128.6,117.5 		"/>
		<polygon fill="#03244D" points="116.2,121.9 120.8,127 120.4,119.9 		"/>
		<polygon fill="#FF8D43" points="120.6,86 120.7,85.9 122.3,82.3 126.2,87.5 		"/>
		<polygon fill="#FF8D43" points="124.7,91.8 131.2,94 127.9,97.8 		"/>
		<polygon fill="#FF8D43" points="126.2,87.5 124.7,91.8 131.2,94 		"/>
		<polygon fill="#FF8D43" points="117.4,95.2 120.6,90.7 113.9,89.7 		"/>
		<polygon fill="#FF8D43" points="112.2,96.5 113.7,99 113.9,95.2 		"/>
		<polygon fill="#FF8D43" points="107,96.7 104,95.9 103.8,101 		"/>
		<polygon fill="#FF8D43" points="107,96.7 108.5,93.7 110.2,94.8 		"/>
		<polygon fill="#FF8D43" points="104.3,86.8 104.2,82.8 101.8,88.3 		"/>
		<polygon fill="#FF8D43" points="110.6,81 110.5,90 113.9,89.7 		"/>
		<polygon fill="#FF8D43" points="99.9,74.1 109.7,72.7 99.9,71.5 		"/>
		<polygon fill="#FF8D43" points="112.7,115.6 111.2,120.5 114.6,119.2 		"/>
		<polygon fill="#FF8D43" points="128.6,109.1 128.6,117.5 137.6,116.1 		"/>
		<polygon fill="#FFD385" points="110.6,81 106,85.6 110.5,90 		"/>
		<polygon fill="#FF8D43" points="104.2,82.8 106,85.6 104.3,86.8 		"/>
		<polygon fill="#FF8D43" points="104.3,86.8 101.8,88.3 104,95.9 		"/>
		<polygon fill="#FF8D43" points="108.5,88 108.5,93.7 106.7,90.3 		"/>
		<polygon fill="#FF8D43" points="131.2,94 127.9,97.8 133.5,100.4 		"/>
		<polygon fill="#03244D" points="133.5,100.4 128.6,109.1 136.2,109.5 		"/>
		<polygon fill="#DD550C" points="117.4,101.4 119.5,108.1 120.8,101.4 		"/>
		<polygon fill="#FF8D43" points="119.5,108.1 115.4,103.2 114.5,106.9 		"/>
		<polygon fill="#FF8D43" points="122.3,105 126.3,102 126.5,110.3 		"/>
		<polygon fill="#FF8D43" points="112.7,115.6 117,114.6 114.6,119.2 		"/>
		<polygon fill="#DD550C" points="114.6,119.2 111.2,120.5 112.9,127.1 		"/>
		<polygon fill="#DD550C" points="127.9,97.8 128.6,109.1 133.5,100.4 		"/>
		<polygon fill="#FF8D43" points="126.3,102 122.8,98.2 122.3,105 		"/>
		<polygon fill="#FF8D43" points="122.3,105 122.1,112.3 126.5,110.3 		"/>
		<polygon fill="#FF8D43" points="115.4,103.2 117.4,101.4 119.5,108.1 		"/>
		<polygon fill="#FF8D43" points="114.5,106.9 111.9,111.2 119.5,108.1 		"/>
		<polygon fill="#FF8D43" points="109.6,101.6 106.9,100.6 107.4,103.8 		"/>
		<polygon fill="#FF8D43" points="113.9,89.7 111.9,93.4 113.9,95.2 		"/>
		<polygon fill="#FF8D43" points="104.2,82.8 110.6,81 106,85.6 		"/>
		<polygon fill="#FF8D43" points="134.7,109.4 133.5,112.9 128.6,109.1 		"/>
		<polygon fill="#FF8D43" points="105,118.7 105,120.5 102,124.1 106.3,124 106.9,120.7 		"/>
		<polygon fill="#FF8D43" points="111.9,111.2 117,114.6 119,111 		"/>
		<polygon fill="#FF8D43" points="117,114.6 121.8,115.6 126.5,110.3 		"/>
		<polygon fill="#03244D" points="128.6,117.5 133.4,125.4 134.7,116.5 		"/>
		<polygon fill="#FF8D43" points="122.8,98.2 124.8,97.3 120.6,90.7 		"/>
		<polygon fill="#FF8D43" points="108.5,93.7 106.7,90.3 107,96.7 		"/>
		<polygon fill="#FF8D43" points="110.2,94.8 111.9,93.4 113.9,95.2 		"/>
		<polygon fill="#FF8D43" points="106.7,90.3 104.3,86.8 108.5,88 		"/>
		<polygon fill="#FF8D43" points="126.5,110.3 128.6,109.1 128.6,117.5 		"/>
		<polygon fill="#FF8D43" points="120.4,119.9 120.8,127 124.7,124.2 		"/>
		<polygon fill="#03244D" points="124.7,124.2 131.2,130.5 131.2,125.1 		"/>
		<polygon fill="#FF8D43" points="106.3,124 109.9,130 103.9,130.5 		"/>
		<polygon fill="#FF8D43" points="102,124.1 103.9,130.5 100,125.9 101,124.1 		"/>
		<polygon fill="#FF8D43" points="103.8,132.3 104.8,139.2 97.2,134.5 		"/>
		<polygon fill="#FF8D43" points="97.2,134.5 97.2,143.4 99.8,139.9 		"/>
		<polygon fill="#03244D" points="104.3,86.8 107,96.7 106.7,90.3 		"/>
		<polygon fill="#FF8D43" points="117.4,95.2 113.7,99 117.4,98.1 		"/>
		<polygon fill="#FF8D43" points="124.8,97.3 126.3,102 122.8,98.2 		"/>
		<polygon fill="#FF8D43" points="117,114.6 120.4,119.9 121.8,115.6 		"/>
		<polygon fill="#FF8D43" points="100,125.9 97.9,127.3 98.1,129.2 103.9,130.5 		"/>
		<polygon fill="#03244D" points="97.2,134.5 101.1,142.6 103,138 		"/>
		<polygon fill="#FF8D43" points="103.8,132.3 104.8,139.2 108.1,134.5 		"/>
		<polygon fill="#FF8D43" points="116.2,121.9 112.9,127.1 120.8,127 		"/>
		<polygon fill="#FF8D43" points="124.7,124.2 126.1,130.4 120.8,127 		"/>
		<polygon fill="#FF8D43" points="106.3,124 109.9,130 112.9,127.1 		"/>
		<polygon fill="#DD550C" points="106.3,124 102,124.1 103.9,130.5 		"/>
		<polygon fill="#03244D" points="103.8,132.3 97.2,129.9 97.2,134.5 		"/>
		<polygon fill="#FF8D43" points="103.8,132.3 103.9,130.5 111.8,136.4 		"/>
		<polygon fill="#FF8D43" points="112.9,127.1 122,133.2 120.8,127 		"/>
		<polygon fill="#FF8D43" points="124.7,124.2 125.5,128.1 131.2,130.5 		"/>
		<polygon fill="#DD550C" points="103.8,132.3 103.9,130.5 97.2,129.9 		"/>
		<polygon fill="#DD550C" points="107.6,133.2 109.9,130 111.8,136.4 		"/>
		<polygon fill="#DD550C" points="112.9,127.1 112.3,132.2 122,133.2 		"/>
		<polygon fill="#DD550C" points="122.3,82.3 126,82.4 124.3,84.9 		"/>
		<polygon fill="#FF8D43" points="124.3,79.3 131.8,74.1 127.2,69.3 		"/>
		<polygon fill="#DD550C" points="127.2,69.3 125,61.6 121.9,71.5 		"/>
		<polygon fill="#DD550C" points="125,61.6 117.4,65.4 121.1,62.4 		"/>
		<polygon fill="#03244D" points="126.2,87.5 133.1,93.4 131.2,94 		"/>
		<polygon fill="#03244D" points="109.9,130 112.9,127.1 111.8,136.4 		"/>
		<polygon fill="#DD550C" points="113.9,89.7 111.9,93.4 108.5,93.7 		"/>
		<polygon fill="#DD550C" points="108.5,88 108.5,93.7 110.5,90 		"/>
		<polygon fill="#DD550C" points="104.3,86.8 106,85.6 108.5,88 		"/>
		<polygon fill="#DD550C" points="124.3,79.3 122.3,82.3 126,82.4 		"/>
		<polygon fill="#DD550C" points="121.9,71.5 117.9,80.2 121.9,78 		"/>
		<polygon fill="#FF8D43" points="112.2,96.5 109.6,101.6 113.7,99 		"/>
		<polygon fill="#FF8D43" points="109.6,101.6 106.9,100.6 110.2,100.5 		"/>
		<polygon fill="#FF8D43" points="106.9,100.6 106,102.7 107.4,103.8 		"/>
		<polygon fill="#FF8D43" points="108.5,93.7 111.9,93.4 110.2,94.8 		"/>
		<g>
			<path fill="#03244D" d="M107.8,96l2.4-1.2l3.8,0.4l-1.7,1.4c0,0,1.2,5.2-5.3,4l-0.9,2.1l-2.2-1.7l3.3-4.4L107.8,96z"/>
			<g>
				<path fill="#03244D" d="M109,97.2c-1,0-1.9,0.6-2.3,1.4c-0.1-0.2-0.1-0.5-0.1-0.7c0-1.2,1.1-2.2,2.4-2.2c1.3,0,2.4,1,2.4,2.2
					c0,0.3-0.1,0.5-0.1,0.7C111,97.8,110.1,97.2,109,97.2z"/>
				<path fill="#DD550C" d="M109,100c-1,0-1.9-0.6-2.3-1.4c0.3-0.8,1.2-1.4,2.3-1.4s1.9,0.6,2.3,1.4C111,99.4,110.1,100,109,100z"/>
			</g>
			<ellipse fill="#03244D" cx="108.5" cy="97.3" rx="0.7" ry="0.8"/>
		</g>
		<polygon fill="#FF8D43" points="99.3,89.6 101.8,88.3 99.6,95.2 		"/>
		<polygon fill="#FF8D43" points="102.1,120.2 97.2,118.1 99,122 		"/>
		<polygon fill="#FF8D43" points="99,122 97.2,118.1 97.2,122 		"/>
		<polygon fill="#DD550C" points="97.2,118.1 100.7,114.2 102.1,120.2 		"/>
		<polygon fill="#03244D" points="100.7,114.2 97.2,108.4 97.2,118.1 		"/>
		<polygon fill="#FF8D43" points="100.7,114.2 100.7,103 97.2,108.4 		"/>
		<polygon fill="#DD550C" points="100.7,103 103,111 104.3,107.3 		"/>
		<polygon fill="#DD550C" points="100.7,103 97.2,100.5 97.2,105.5 		"/>
		<polygon fill="#03244D" points="100.7,103 99.6,95.2 97.2,100.5 		"/>
		<polygon fill="#FF8D43" points="100.7,103 97.2,108.4 97.2,105.5 		"/>
		<polygon fill="#F9B26B" points="109.7,72.7 112.1,69.2 113.9,74.3 		"/>
		<polygon fill="#FFA748" points="109.7,72.7 105.1,69.1 112.1,69.2 		"/>
		<polygon fill="#FFA748" points="105.1,69.1 97.2,71.1 97.2,69.1 		"/>
		<polygon fill="#DD550C" points="109.7,72.7 101.6,70 105.1,69.1 		"/>
		<polygon fill="#FFD385" points="105.1,69.1 101.3,66.9 112.1,69.2 		"/>
		<polygon fill="#FFD385" points="101.3,66.9 97.2,66 98.9,68.1 		"/>
		<polygon fill="#FF8D43" points="109.7,76.8 109.7,72.7 103.5,73.6 		"/>
		<polygon fill="#FFD385" points="115.6,81.3 120.6,86 122.3,82.3 		"/>
		<polygon fill="#FFD385" points="115.6,81.3 113.9,74.3 117.9,80.2 		"/>
		<polygon fill="#FF8D43" points="109.7,72.7 115.6,81.3 113.9,74.3 		"/>
		<polygon fill="#FF8D43" points="109.7,76.8 111.3,75.1 109.7,72.7 		"/>
		<polygon fill="#FF8D43" points="109.7,76.8 112.5,76.8 115.6,81.3 		"/>
		<polygon fill="#03244D" points="109.7,76.8 111.3,75.1 112.5,76.8 		"/>
		<polygon fill="#FFD385" points="113.9,74.3 117.4,65.4 112.1,69.2 		"/>
		<polygon fill="#FF8D43" points="127.2,69.3 130.3,64.3 125,61.6 		"/>
		<polygon fill="#DD550C" points="127.2,69.3 130.3,64.3 131.8,74.1 		"/>
		<polygon fill="#FF8D43" points="117.4,65.4 121.9,71.5 125,61.6 		"/>
		<polygon fill="#03244D" points="117.4,65.4 113.9,74.3 121.9,71.5 		"/>
		<polygon fill="#FF8D43" points="113.9,74.3 117.9,80.2 121.9,71.5 		"/>
	</g>
</g>
<g>
	<g>
		<path fill="#FFE473" d="M86.7,97.4c-0.1-0.2-0.2-0.5-0.4-0.6c0-0.1-0.1-0.2-0.3-0.2c0,0,0,0,0,0c0,0,0,0,0,0c-0.1,0-0.2,0-0.3,0.2
			c-0.2,0.2-0.3,0.4-0.3,0.7c0,0.4,0.5,0.7,0.9,0.7C86.6,98.1,86.8,97.7,86.7,97.4z M86.2,97.7c-0.2,0.1-0.4-0.1-0.4-0.3
			c0-0.1,0-0.3,0.2-0.3c0.1,0.1,0.2,0.2,0.3,0.3C86.2,97.4,86.3,97.7,86.2,97.7z"/>
		<polygon fill="#03244D" points="97.3,122 95.6,122 92.4,120.2 91.3,121.1 95,124.3 95.2,126.1 97.3,126.6 		"/>
		<polygon fill="#03244D" points="91.3,121.1 89.5,118.7 89.5,120.5 92.5,124.1 93.5,124.1 94.5,125.9 96.6,127.3 96.4,129.2 
			90.6,130.5 97.3,129.9 97.3,126.6 95,126.1 95,124.3 		"/>
		<polygon fill="#03244D" points="97.3,69.1 93.3,66.9 89.4,69.1 		"/>
		<polygon fill="#03244D" points="94.9,79.7 90.4,82.8 83.9,81 		"/>
		<polygon fill="#03244D" points="97.3,71.1 84.8,72.7 92.9,70 		"/>
		<polygon fill="#DD550C" points="94.9,79.7 97.3,76 97.3,81 		"/>
		<polygon fill="#03244D" points="83.9,81 80.6,89.7 76.7,87.8 		"/>
		<polygon fill="#03244D" points="76.6,80.2 72.6,78 72.2,82.3 		"/>
		<polygon fill="#03244D" points="72.6,78 72.6,71.5 67.3,69.3 		"/>
		<polygon fill="#03244D" points="80.6,89.7 80.6,95.2 77.2,95.2 		"/>
		<polygon fill="#03244D" points="80.8,99 77.2,101.4 77.2,98.1 		"/>
		<polygon fill="#03244D" points="75.1,95.2 73.9,90.7 71.7,98.2 		"/>
		<polygon fill="#03244D" points="69.8,91.8 69.8,97.1 66.6,97.8 		"/>
		<polygon fill="#03244D" points="82.2,104.5 79.1,103.2 80,106.9 		"/>
		<polygon fill="#03244D" points="72.2,105 72.4,112.3 77.5,114.6 		"/>
		<polygon fill="#03244D" points="68,110.3 72.7,115.6 69.8,124.2 		"/>
		<polygon fill="#03244D" points="90.6,130.5 84.6,130 86.9,133.2 		"/>
		<polygon fill="#03244D" points="97.3,69.1 95.6,68.1 97.3,66 		"/>
		<polygon fill="#DD550C" points="97.3,71.1 97.3,76 94.6,71.5 		"/>
		<polygon fill="#03244D" points="83.9,81 84.8,76.8 78.9,81.3 		"/>
		<polygon fill="#03244D" points="72.6,78 72.2,82.3 70.2,79.3 		"/>
		<polygon fill="#03244D" points="69.8,91.8 71.7,91.3 69.8,97.1 		"/>
		<polygon fill="#03244D" points="71.7,98.2 73.7,101.4 75.1,95.2 		"/>
		<polygon fill="#03244D" points="80.8,99 79.1,103.2 77.2,101.4 		"/>
		<polygon fill="#03244D" points="69.8,97.1 68.2,102 66.6,97.8 		"/>
		<polygon fill="#03244D" points="73.7,101.4 72.2,105 75.5,111 		"/>
		<polygon fill="#03244D" points="79.9,119.2 78.3,121.9 81.6,127.1 		"/>
		<polygon fill="#03244D" points="94.7,74.1 91,73.6 83.9,81 		"/>
		<polygon fill="#DD550C" points="69.8,91.8 73.9,86 73.9,90.7 		"/>
		<polygon fill="#DD550C" points="68.2,102 68,110.3 65.9,109.1 		"/>
		<polygon fill="#DD550C" points="75.5,111 82.6,111.2 75,108.1 		"/>
		<polygon fill="#DD550C" points="72.7,115.6 74.1,119.9 69.8,124.2 		"/>
		<polygon fill="#DD550C" points="79.9,119.2 74.1,119.9 78.3,121.9 		"/>
		<polygon fill="#DD550C" points="80.6,89.7 86,93.7 84,90 		"/>
		<polygon fill="#DD550C" points="67.3,69.3 70.2,79.3 72.6,78 		"/>
		<polygon fill="#03244D" points="70.2,79.3 68.5,82.4 67.4,78.4 		"/>
		<polygon fill="#03244D" points="66.6,97.8 68.2,102 65.9,109.1 		"/>
		<polygon fill="#03244D" points="71.7,98.2 72.2,105 73.7,101.4 		"/>
		<polygon fill="#03244D" points="74.1,119.9 77.5,114.6 79.9,119.2 		"/>
		<polygon fill="#03244D" points="77.5,114.6 86.9,108.4 81.8,115.6 		"/>
		<polygon fill="#DD550C" points="68,110.3 65.9,117.5 69.8,124.2 		"/>
		<polygon fill="#03244D" points="78.9,81.3 76.7,87.8 73.9,86 		"/>
		<polygon fill="#DD550C" points="83.9,81 76.7,87.8 78.9,81.3 		"/>
		<polygon fill="#03244D" points="97.3,76 94.6,71.5 94.9,79.7 		"/>
		<polygon fill="#03244D" points="83.3,120.5 87.6,120.7 88.2,124 		"/>
		<polygon fill="#03244D" points="90.7,101 90.2,107.3 87.1,103.8 		"/>
		<polygon fill="#03244D" points="93.8,103 90.5,95.9 94.9,95.2 		"/>
		<polygon fill="#03244D" points="93.8,103 93.8,114.2 91.5,111 		"/>
		<polygon fill="#03244D" points="91.5,111 88.9,114.5 93.8,114.2 		"/>
		<polygon fill="#03244D" points="88.9,114.5 89.5,118.7 93.8,114.2 		"/>
		<polygon fill="#DD550C" points="87.1,103.8 86.9,108.4 90.2,107.3 		"/>
		<polygon fill="#DD550C" points="97.3,90.7 94.9,95.2 97.3,100.5 		"/>
		<polygon fill="#DD550C" points="86.9,108.4 88.9,114.5 81.8,115.6 		"/>
		<polygon fill="#DD550C" points="90.2,107.3 91.5,111 86.9,108.4 		"/>
		<polygon fill="#DD550C" points="90.7,101 93.8,103 90.2,107.3 		"/>
		<polygon fill="#FF8D43" points="93.8,103 90.5,95.9 90.7,101 		"/>
		<polygon fill="#FF8D43" points="86.9,108.4 91.5,111 88.9,114.5 		"/>
		<polygon fill="#FF8D43" points="82.2,104.5 84.9,101.6 87.1,103.8 		"/>
		<polygon fill="#FF8D43" points="88.9,114.5 87.6,120.7 89.5,118.7 		"/>
		<polygon fill="#FFB68D" points="84.9,101.6 80.8,99 82.2,104.5 		"/>
		<polygon fill="#DD550C" points="88.9,114.5 83.3,120.5 81.8,115.6 		"/>
		<polygon fill="#DD550C" points="94.9,95.2 92.7,88.3 90.5,95.9 		"/>
		<polygon fill="#FFAE1F" points="94.9,95.2 95.3,89.6 97.3,90.7 		"/>
		<polygon fill="#DD550C" points="87.1,103.8 86.9,108.4 82.2,104.5 		"/>
		<polygon fill="#F9B26B" points="88.9,114.5 87.6,120.7 83.3,120.5 		"/>
		<polygon fill="#F9B26B" points="86.9,108.4 82.2,104.5 82.6,111.2 		"/>
		<polygon fill="#F9B26B" points="80.8,99 80.6,95.2 77.2,95.2 		"/>
		<polygon fill="#03244D" points="92.7,88.3 97.3,90.7 97.3,81 		"/>
		<polygon fill="#EFC075" points="97.3,81 94.9,79.7 92.7,88.3 		"/>
		<polygon fill="#EFC075" points="93.8,114.2 92.4,120.2 91.3,121.1 89.5,118.7 		"/>
		<polygon fill="#EFC075" points="80.8,99 82.2,104.5 79.1,103.2 		"/>
		<polygon fill="#EFC075" points="91,73.6 84.8,76.8 83.9,81 		"/>
		<polygon fill="#EFC075" points="76.7,87.8 73.9,90.7 73.9,86 		"/>
		<polygon fill="#FF8D43" points="94.9,79.7 92.7,88.3 90.4,82.8 		"/>
		<polygon fill="#FF8D43" points="76.7,87.8 80.6,89.7 73.9,90.7 		"/>
		<polygon fill="#FF8D43" points="77.2,95.2 77.2,101.4 75.1,95.2 		"/>
		<polygon fill="#FF8D43" points="73.9,90.7 69.7,97.3 71.7,91.3 		"/>
		<polygon fill="#FF8D43" points="83.9,81 94.7,74.1 94.9,79.7 		"/>
		<path fill="#FF8D43" d="M83.3,120.5"/>
		<polygon fill="#FF8D43" points="81.6,127.1 88.2,124 83.3,120.5 		"/>
		<polygon fill="#FF8D43" points="73.9,86 68.3,87.5 69.8,91.8 		"/>
		<polygon fill="#FF8D43" points="76.6,80.2 78.9,81.3 72.2,82.3 		"/>
		<polygon fill="#FF8D43" points="77.2,95.2 73.9,90.7 75.1,95.2 		"/>
		<polygon fill="#FF8D43" points="90.2,86.8 90.5,95.9 87.5,96.7 		"/>
		<polygon fill="#FF8D43" points="77.2,101.4 73.7,101.4 75.1,95.2 		"/>
		<polygon fill="#FF8D43" points="82.2,104.5 82.6,111.2 80,106.9 		"/>
		<polygon fill="#FF8D43" points="61.1,125.4 69.8,124.2 65.9,117.5 		"/>
		<polygon fill="#03244D" points="78.3,121.9 73.7,127 74.1,119.9 		"/>
		<polygon fill="#FF8D43" points="73.9,86 73.8,85.9 72.2,82.3 68.3,87.5 		"/>
		<polygon fill="#FF8D43" points="69.8,91.8 63.3,94 66.6,97.8 		"/>
		<polygon fill="#DD550C" points="68.3,87.5 69.8,91.8 63.3,94 		"/>
		<polygon fill="#FF8D43" points="77.2,95.2 73.9,90.7 80.6,89.7 		"/>
		<polygon fill="#FF8D43" points="82.3,96.5 80.8,99 80.6,95.2 		"/>
		<polygon fill="#FF8D43" points="87.5,96.7 90.5,95.9 90.7,101 		"/>
		<polygon fill="#FF8D43" points="87.5,96.7 86,93.7 84.3,94.8 		"/>
		<polygon fill="#FF8D43" points="90.2,86.8 90.4,82.8 92.7,88.3 		"/>
		<polygon fill="#FF8D43" points="83.9,81 84,90 80.6,89.7 		"/>
		<polygon fill="#FF8D43" points="94.7,74.1 84.8,72.7 94.6,71.5 		"/>
		<polygon fill="#FF8D43" points="81.8,115.6 83.3,120.5 79.9,119.2 		"/>
		<polygon fill="#FF8D43" points="65.9,109.1 65.9,117.5 56.9,116.1 		"/>
		<polygon fill="#FFD385" points="83.9,81 88.5,85.6 84,90 		"/>
		<polygon fill="#FF8D43" points="90.4,82.8 88.5,85.6 90.2,86.8 		"/>
		<polygon fill="#FF8D43" points="90.2,86.8 92.7,88.3 90.5,95.9 		"/>
		<polygon fill="#FF8D43" points="86,88 86,93.7 87.8,90.3 		"/>
		<polygon fill="#FF8D43" points="63.3,94 66.6,97.8 61,100.4 		"/>
		<polygon fill="#03244D" points="61,100.4 65.9,109.1 58.3,109.5 		"/>
		<polygon fill="#DD550C" points="77.2,101.4 75,108.1 73.7,101.4 		"/>
		<polygon fill="#FF8D43" points="75,108.1 79.1,103.2 80,106.9 		"/>
		<polygon fill="#FF8D43" points="72.2,105 68.2,102 68,110.3 		"/>
		<polygon fill="#FF8D43" points="81.8,115.6 77.5,114.6 79.9,119.2 		"/>
		<polygon fill="#DD550C" points="79.9,119.2 83.3,120.5 81.6,127.1 		"/>
		<polygon fill="#DD550C" points="66.6,97.8 65.9,109.1 61,100.4 		"/>
		<polygon fill="#FF8D43" points="68.2,102 71.7,98.2 72.2,105 		"/>
		<polygon fill="#FF8D43" points="72.2,105 72.4,112.3 68,110.3 		"/>
		<polygon fill="#FF8D43" points="79.1,103.2 77.2,101.4 75,108.1 		"/>
		<polygon fill="#FF8D43" points="80,106.9 82.6,111.2 75,108.1 		"/>
		<polygon fill="#FF8D43" points="84.9,101.6 87.6,100.6 87.1,103.8 		"/>
		<polygon fill="#FF8D43" points="80.6,89.7 82.6,93.4 80.6,95.2 		"/>
		<polygon fill="#FF8D43" points="90.4,82.8 83.9,81 88.5,85.6 		"/>
		<polygon fill="#FF8D43" points="59.8,109.4 61,112.9 65.9,109.1 		"/>
		<polygon fill="#FF8D43" points="89.5,118.7 89.5,120.5 92.5,124.1 88.2,124 87.6,120.7 		"/>
		<polygon fill="#FF8D43" points="82.6,111.2 77.5,114.6 75.5,111 		"/>
		<polygon fill="#FF8D43" points="77.5,114.6 72.7,115.6 68,110.3 		"/>
		<polygon fill="#03244D" points="65.9,117.5 61.1,125.4 59.8,116.5 		"/>
		<polygon fill="#FF8D43" points="71.7,98.2 69.7,97.3 73.9,90.7 		"/>
		<polygon fill="#FF8D43" points="86,93.7 87.8,90.3 87.5,96.7 		"/>
		<polygon fill="#FF8D43" points="84.3,94.8 82.6,93.4 80.6,95.2 		"/>
		<polygon fill="#FF8D43" points="87.8,90.3 90.2,86.8 86,88 		"/>
		<polygon fill="#FF8D43" points="68,110.3 65.9,109.1 65.9,117.5 		"/>
		<polygon fill="#FF8D43" points="74.1,119.9 73.7,127 69.8,124.2 		"/>
		<polygon fill="#03244D" points="69.8,124.2 63.3,130.5 63.3,125.1 		"/>
		<polygon fill="#FF8D43" points="88.2,124 84.6,130 90.6,130.5 		"/>
		<polygon fill="#FF8D43" points="92.5,124.1 90.6,130.5 94.5,125.9 93.5,124.1 		"/>
		<polygon fill="#FF8D43" points="90.7,132.3 89.7,139.2 97.3,134.5 		"/>
		<polygon fill="#FF8D43" points="97.3,134.5 97.3,143.4 94.7,139.9 		"/>
		<polygon fill="#03244D" points="90.2,86.8 87.5,96.7 87.8,90.3 		"/>
		<polygon fill="#FF8D43" points="77.2,95.2 80.8,99 77.2,98.1 		"/>
		<polygon fill="#FF8D43" points="69.7,97.3 68.2,102 71.7,98.2 		"/>
		<polygon fill="#FF8D43" points="77.5,114.6 74.1,119.9 72.7,115.6 		"/>
		<polygon fill="#FF8D43" points="94.5,125.9 96.6,127.3 96.4,129.2 90.6,130.5 		"/>
		<polygon fill="#03244D" points="97.3,134.5 93.4,142.6 91.5,138 		"/>
		<polygon fill="#FF8D43" points="90.7,132.3 89.7,139.2 86.4,134.5 		"/>
		<polygon fill="#FF8D43" points="78.3,121.9 81.6,127.1 73.7,127 		"/>
		<polygon fill="#FF8D43" points="69.8,124.2 68.4,130.4 73.7,127 		"/>
		<polygon fill="#FF8D43" points="88.2,124 84.6,130 81.6,127.1 		"/>
		<polygon fill="#DD550C" points="88.2,124 92.5,124.1 90.6,130.5 		"/>
		<polygon fill="#03244D" points="90.7,132.3 97.3,129.9 97.3,134.5 		"/>
		<polygon fill="#FF8D43" points="90.7,132.3 90.6,130.5 82.7,136.4 		"/>
		<polygon fill="#FF8D43" points="81.6,127.1 72.5,133.2 73.7,127 		"/>
		<polygon fill="#FF8D43" points="69.8,124.2 69,128.1 63.3,130.5 		"/>
		<polygon fill="#DD550C" points="90.7,132.3 90.6,130.5 97.3,129.9 		"/>
		<polygon fill="#DD550C" points="86.9,133.2 84.6,130 82.7,136.4 		"/>
		<polygon fill="#DD550C" points="81.6,127.1 82.2,132.2 72.5,133.2 		"/>
		<polygon fill="#DD550C" points="72.2,82.3 68.5,82.4 70.2,84.9 		"/>
		<polygon fill="#FF8D43" points="70.2,79.3 62.7,74.1 67.3,69.3 		"/>
		<polygon fill="#DD550C" points="67.3,69.3 69.5,61.6 72.6,71.5 		"/>
		<polygon fill="#DD550C" points="69.5,61.6 77.2,65.4 73.4,62.4 		"/>
		<polygon fill="#03244D" points="68.3,87.5 61.4,93.4 63.3,94 		"/>
		<polygon fill="#03244D" points="84.6,130 81.6,127.1 82.7,136.4 		"/>
		<polygon fill="#DD550C" points="80.6,89.7 82.6,93.4 86,93.7 		"/>
		<polygon fill="#DD550C" points="86,88 86,93.7 84,90 		"/>
		<polygon fill="#DD550C" points="90.2,86.8 88.5,85.6 86,88 		"/>
		<polygon fill="#DD550C" points="70.2,79.3 72.2,82.3 68.5,82.4 		"/>
		<polygon fill="#DD550C" points="72.6,71.5 76.6,80.2 72.6,78 		"/>
		<polygon fill="#FF8D43" points="82.3,96.5 84.9,101.6 80.8,99 		"/>
		<polygon fill="#FF8D43" points="84.9,101.6 87.6,100.6 84.3,100.5 		"/>
		<polygon fill="#FF8D43" points="87.6,100.6 88.5,102.7 87.1,103.8 		"/>
		<polygon fill="#FF8D43" points="86,93.7 82.6,93.4 84.3,94.8 		"/>
		<g>
			<path fill="#03244D" d="M86.7,96l-2.4-1.2l-3.8,0.4l1.7,1.4c0,0-1.2,5.2,5.3,4l0.9,2.1l2.2-1.7l-3.3-4.4L86.7,96z"/>
			<g>
				<path fill="#03244D" d="M85.5,97.2c1,0,1.9,0.6,2.3,1.4c0.1-0.2,0.1-0.5,0.1-0.7c0-1.2-1.1-2.2-2.4-2.2c-1.3,0-2.4,1-2.4,2.2
					c0,0.3,0.1,0.5,0.1,0.7C83.6,97.8,84.4,97.2,85.5,97.2z"/>
				<path fill="#DD550C" d="M85.5,100c1,0,1.9-0.6,2.3-1.4c-0.3-0.8-1.2-1.4-2.3-1.4c-1,0-1.9,0.6-2.3,1.4
					C83.6,99.4,84.4,100,85.5,100z"/>
			</g>
			<ellipse fill="#03244D" cx="86" cy="97.3" rx="0.7" ry="0.8"/>
		</g>
		<polygon fill="#FF8D43" points="95.3,89.6 92.7,88.3 94.9,95.2 		"/>
		<polygon fill="#FF8D43" points="92.4,120.2 97.3,118.1 95.6,122 		"/>
		<polygon fill="#FF8D43" points="95.6,122 97.3,118.1 97.3,122 		"/>
		<polygon fill="#DD550C" points="97.3,118.1 93.8,114.2 92.4,120.2 		"/>
		<polygon fill="#03244D" points="93.8,114.2 97.3,108.4 97.3,118.1 		"/>
		<polygon fill="#FF8D43" points="93.8,114.2 93.8,103 97.3,108.4 		"/>
		<polygon fill="#FF8D43" points="93.8,103 91.5,111 90.2,107.3 		"/>
		<polygon fill="#DD550C" points="93.8,103 97.3,100.5 97.3,105.5 		"/>
		<polygon fill="#03244D" points="93.8,103 94.9,95.2 97.3,100.5 		"/>
		<polygon fill="#FF8D43" points="93.8,103 97.3,108.4 97.3,105.5 		"/>
		<polygon fill="#F9B26B" points="84.8,72.7 82.4,69.2 80.6,74.3 		"/>
		<polygon fill="#FFA748" points="84.8,72.7 89.4,69.1 82.4,69.2 		"/>
		<polygon fill="#DD550C" points="89.4,69.1 97.3,71.1 97.3,69.1 		"/>
		<polygon fill="#DD550C" points="84.8,72.7 92.9,70 89.4,69.1 		"/>
		<polygon fill="#FFD385" points="89.4,69.1 93.3,66.9 82.4,69.2 		"/>
		<polygon fill="#FFD385" points="93.3,66.9 97.3,66 95.6,68.1 		"/>
		<polygon fill="#FF8D43" points="84.8,76.8 84.8,72.7 91,73.6 		"/>
		<polygon fill="#FFD385" points="78.9,81.3 73.9,86 72.2,82.3 		"/>
		<polygon fill="#FFD385" points="78.9,81.3 80.6,74.3 76.6,80.2 		"/>
		<polygon fill="#FF8D43" points="84.8,72.7 78.9,81.3 80.6,74.3 		"/>
		<polygon fill="#FF8D43" points="84.8,76.8 83.2,75.1 84.8,72.7 		"/>
		<polygon fill="#FF8D43" points="84.8,76.8 82,76.8 78.9,81.3 		"/>
		<polygon fill="#03244D" points="84.8,76.8 83.2,75.1 82,76.8 		"/>
		<polygon fill="#FFD385" points="80.6,74.3 77.2,65.4 82.4,69.2 		"/>
		<polygon fill="#FF8D43" points="67.3,69.3 64.2,64.3 69.5,61.6 		"/>
		<polygon fill="#DD550C" points="67.3,69.3 64.2,64.3 62.7,74.1 		"/>
		<polygon fill="#FF8D43" points="77.2,65.4 72.6,71.5 69.5,61.6 		"/>
		<polygon fill="#03244D" points="77.2,65.4 80.6,74.3 72.6,71.5 		"/>
		<polygon fill="#FF8D43" points="80.6,74.3 76.6,80.2 72.6,71.5 		"/>
	</g>
</g>
</svg>
