<?xml version="1.0" standalone="no"?>
<!DOCTYPE svg PUBLIC "-//W3C//DTD SVG 20010904//EN"
 "http://www.w3.org/TR/2001/REC-SVG-20010904/DTD/svg10.dtd">
<svg version="1.0" xmlns="http://www.w3.org/2000/svg"
 width="341.000000pt" height="341.000000pt" viewBox="0 0 341.000000 341.000000"
 preserveAspectRatio="xMidYMid meet">
<metadata>
Created by potrace 1.11, written by Peter Selinger 2001-2013
</metadata>
<g transform="translate(0.000000,341.000000) scale(0.100000,-0.100000)"
fill="#000000" stroke="none">
<path d="M428 3353 c-105 -56 -106 -58 -113 -98 -3 -23 -8 -53 -10 -66 -2 -13
-6 -42 -10 -64 -6 -42 -12 -80 -20 -130 -17 -102 -17 -114 8 -127 37 -21 267
-181 264 -184 -2 -2 -24 3 -49 11 l-45 13 27 -86 c15 -48 42 -110 60 -139 l32
-52 -38 -48 c-38 -47 -69 -78 -116 -117 -40 -33 -143 -121 -148 -126 -3 -3
-19 -17 -37 -31 l-31 -26 39 -12 c21 -7 39 -15 39 -20 0 -4 -18 -57 -41 -117
-37 -101 -159 -496 -159 -517 0 -5 9 -7 20 -4 29 7 45 -12 68 -80 l20 -62 -85
-65 c-47 -36 -84 -66 -82 -67 2 0 13 -2 24 -5 11 -2 35 -6 54 -8 41 -6 39 -4
46 -52 3 -21 10 -70 16 -109 6 -38 12 -81 14 -95 2 -14 7 -46 10 -72 l7 -47
47 2 46 2 0 -107 c-1 -60 3 -108 7 -108 4 0 54 20 110 45 56 25 106 45 109 45
4 0 3 -16 -2 -36 -6 -19 -9 -39 -7 -44 2 -4 44 18 93 51 50 33 97 64 106 69
14 8 13 -7 -7 -113 -29 -146 -28 -140 -6 -133 9 2 51 8 92 11 41 4 86 9 100
10 14 2 59 6 100 10 41 4 78 9 82 11 9 6 25 -86 27 -149 l1 -27 79 39 79 40
66 -95 c37 -51 70 -94 74 -94 4 0 22 9 40 20 l33 20 23 -52 c13 -29 29 -70 37
-90 7 -21 16 -38 19 -38 4 0 18 23 32 52 l25 51 51 -72 51 -72 53 71 53 71 25
-51 c13 -27 27 -50 31 -50 4 0 17 24 27 52 11 29 28 70 37 91 l16 38 33 -20
c18 -12 37 -21 42 -21 5 1 38 43 74 95 l64 93 78 -39 c67 -33 78 -37 78 -22 1
10 3 34 5 53 3 19 6 49 8 65 4 30 5 30 63 29 32 0 93 -4 134 -8 41 -4 106 -11
143 -15 l68 -7 -7 45 c-4 25 -15 83 -24 128 -20 95 -30 95 105 5 50 -33 91
-57 93 -52 2 5 -1 25 -7 44 -5 20 -6 36 -1 36 4 0 57 -22 117 -49 l109 -48 -1
114 -1 114 48 -6 c40 -6 48 -4 49 9 1 9 2 19 3 24 1 4 6 36 11 72 5 36 9 67
10 70 1 3 5 34 10 70 5 36 10 68 11 73 1 4 2 16 3 26 1 16 11 21 49 26 80 11
80 12 -11 82 l-85 66 25 66 c27 71 35 81 64 74 11 -3 19 0 19 7 0 22 -111 384
-156 508 -24 67 -44 124 -44 127 0 2 16 9 35 15 19 6 35 15 34 18 0 4 -39 38
-86 77 -123 100 -204 176 -240 227 l-31 44 35 56 c19 31 45 92 57 136 l23 79
-51 -13 c-28 -8 -52 -14 -54 -14 -1 0 65 46 148 102 92 62 150 107 150 118 0
9 -4 41 -10 71 -5 30 -12 74 -15 99 -5 39 -15 106 -29 190 -3 14 -5 28 -5 31
-1 4 -51 32 -113 64 l-112 57 -55 -12 c-31 -7 -56 -12 -56 -11 0 14 -87 -44
-239 -158 l-185 -141 -63 15 c-35 7 -74 16 -88 19 -24 5 -70 15 -330 72 -69
15 -132 27 -140 27 -12 0 -177 -34 -280 -58 -8 -2 -80 -17 -160 -35 -80 -17
-152 -33 -161 -35 -8 -3 -48 19 -90 50 -41 30 -85 63 -98 73 -14 9 -66 49
-115 88 -50 39 -104 74 -121 78 -138 30 -131 31 -247 -31z"/>
</g>
</svg>
